<svg width="448" height="268" viewBox="0 0 448 268" fill="none" xmlns="http://www.w3.org/2000/svg">
    <g clip-path="url(#clip0_8523_15894)">
        <rect x="0.5" y="0.5" width="447" height="249" rx="7.5" fill="white" stroke="#ECEEF2"/>
        <path d="M54 26.9999L50.6319 32.7836H37.0655C36.8087 32.3939 36.6132 31.9342 36.5623 31.4101C36.4892 30.6487 36.7325 29.847 37.2283 29.1393C38.2165 27.8404 39.7767 26.9999 41.5309 26.9999H54Z" fill="#00B88B"/>
        <path d="M46.904 49.7242H46.9041L47.3352 49.7267L46.904 49.7242ZM49.1492 42.3555C49.1479 42.3574 49.1467 42.3593 49.1454 42.3612C49.2801 42.4313 50.2966 42.9783 50.934 43.9453C51.1916 44.3361 51.3875 44.7951 51.4378 45.3196C51.5107 46.0809 51.267 46.8819 50.7716 47.5908V47.5909C49.783 48.8888 48.223 49.729 46.4691 49.729H47.7631H47.7664C50.6203 49.729 52.9631 47.5067 53.1606 44.7026L53.1628 43.9453L53.1758 39.7837C53.1758 38.6899 52.5898 37.6677 51.6458 37.1154L46.9333 34.3197L44.0439 39.4655L49.1492 42.3555Z" fill="#5B2EBC"/>
        <path d="M38.8508 34.374C38.852 34.3721 38.8532 34.3701 38.8545 34.3682C38.7198 34.2982 37.7033 33.7512 37.066 32.7842C36.8084 32.3934 36.6125 31.9344 36.5621 31.4099C36.4893 30.6486 36.7329 29.8476 37.2283 29.1386V29.1385C38.2169 27.8406 39.7769 27.0005 41.5308 27.0005H40.2369H40.2336C37.3796 27.0005 35.0369 29.2228 34.8394 32.0268L34.8371 32.7842L34.8242 36.9457C34.8242 38.0395 35.4101 39.0618 36.3541 39.6141L40.9895 42.2722L43.8788 37.4291L38.8508 34.374Z" fill="#5B2EBC"/>
        <path d="M34 49.7295L37.3681 43.9459H50.9345C51.1913 44.3355 51.3869 44.7953 51.4377 45.3193C51.5108 46.0807 51.2675 46.8825 50.7717 47.5902C49.7835 48.889 48.2233 49.7295 46.4691 49.7295H34Z" fill="#00B88B"/>
        <rect x="50.5" y="128.5" width="347" height="35" rx="7.5" fill="white" stroke="#ECEEF2"/>
        <rect x="345" y="133" width="48" height="26" rx="8" fill="#B3BAC5"/>
        <path d="M371.93 146.898C372.141 146.688 372.141 146.336 371.93 146.125L367.383 141.555C367.148 141.344 366.797 141.344 366.586 141.555L366.047 142.094C365.836 142.305 365.836 142.656 366.047 142.891L369.656 146.5L366.047 150.133C365.836 150.367 365.836 150.719 366.047 150.93L366.586 151.469C366.797 151.68 367.148 151.68 367.383 151.469L371.93 146.898Z" fill="white"/>
        <rect opacity="0.1" x="70" y="143" width="161" height="6" rx="2" fill="#5A7184"/>
        <g filter="url(#filter0_d_8523_15894)">
            <rect x="50" y="180" width="348" height="36" rx="8" fill="white"/>
        </g>
        <rect x="345" y="185" width="48" height="26" rx="8" fill="#5B2EBC"/>
        <path d="M371.93 198.898C372.141 198.688 372.141 198.336 371.93 198.125L367.383 193.555C367.148 193.344 366.797 193.344 366.586 193.555L366.047 194.094C365.836 194.305 365.836 194.656 366.047 194.891L369.656 198.5L366.047 202.133C365.836 202.367 365.836 202.719 366.047 202.93L366.586 203.469C366.797 203.68 367.148 203.68 367.383 203.469L371.93 198.898Z" fill="white"/>
        <rect opacity="0.1" x="70" y="195" width="161" height="6" rx="2" fill="#5A7184"/>
        <rect x="50.5" y="232.5" width="347" height="35" rx="7.5" fill="white" stroke="#ECEEF2"/>
        <rect x="345" y="237" width="48" height="26" rx="8" fill="#B3BAC5"/>
        <path d="M371.93 250.898C372.141 250.688 372.141 250.336 371.93 250.125L367.383 245.555C367.148 245.344 366.797 245.344 366.586 245.555L366.047 246.094C365.836 246.305 365.836 246.656 366.047 246.891L369.656 250.5L366.047 254.133C365.836 254.367 365.836 254.719 366.047 254.93L366.586 255.469C366.797 255.68 367.148 255.68 367.383 255.469L371.93 250.898Z" fill="white"/>
        <rect opacity="0.1" x="70" y="247" width="161" height="6" rx="2" fill="#5A7184"/>
        <path d="M194.825 90.8V102H196.617V97.872H199.625L202.122 102H204.137L201.481 97.584C202.825 97.056 203.705 95.808 203.705 94.336C203.705 93.328 203.337 92.48 202.617 91.808C201.898 91.136 201.017 90.8 199.945 90.8H194.825ZM199.945 92.464C201.017 92.464 201.833 93.264 201.833 94.336C201.833 95.408 201.017 96.208 199.945 96.208H196.617V92.464H199.945ZM213.732 98.448C213.748 98.176 213.764 97.968 213.764 97.84C213.764 96.592 213.348 95.552 212.516 94.72C211.7 93.888 210.676 93.472 209.444 93.472C208.212 93.472 207.172 93.888 206.34 94.72C205.524 95.552 205.108 96.592 205.108 97.84C205.108 99.088 205.54 100.128 206.388 100.96C207.236 101.792 208.308 102.208 209.572 102.208C211.236 102.208 212.644 101.408 213.412 100.112L211.78 99.616C211.252 100.304 210.516 100.656 209.572 100.656C208.18 100.656 207.076 99.744 206.82 98.448H213.732ZM206.836 97.12C207.14 95.888 208.18 95.024 209.396 95.024C210.692 95.024 211.748 95.888 212.052 97.12H206.836ZM219.17 93.472C218.002 93.472 217.026 93.888 216.242 94.72C215.458 95.552 215.074 96.592 215.074 97.84C215.074 99.088 215.458 100.128 216.242 100.96C217.026 101.792 218.002 102.208 219.17 102.208C220.242 102.208 221.17 101.84 221.938 101.104V101.712C221.938 102.4 221.698 102.976 221.202 103.44C220.706 103.904 220.098 104.144 219.378 104.144C218.418 104.144 217.538 103.664 217.17 102.976L215.49 103.472C215.794 104.16 216.306 104.72 217.042 105.152C217.778 105.584 218.578 105.808 219.442 105.808C220.61 105.808 221.586 105.408 222.386 104.624C223.202 103.84 223.602 102.88 223.602 101.712V93.68H221.938V94.576C221.17 93.84 220.242 93.472 219.17 93.472ZM219.346 95.136C220.066 95.136 220.674 95.392 221.17 95.92C221.666 96.432 221.906 97.072 221.906 97.84C221.906 98.608 221.666 99.248 221.17 99.776C220.674 100.288 220.066 100.544 219.346 100.544C218.626 100.544 218.034 100.288 217.538 99.776C217.042 99.248 216.802 98.608 216.802 97.84C216.802 97.072 217.042 96.432 217.538 95.92C218.034 95.392 218.626 95.136 219.346 95.136ZM227.447 102V93.68H225.783V102H227.447ZM225.831 92.448C226.263 92.88 226.967 92.88 227.399 92.448C227.831 92.016 227.831 91.312 227.399 90.88C226.967 90.448 226.263 90.448 225.831 90.88C225.431 91.312 225.431 92.016 225.831 92.448ZM235.527 95.584C235.287 94.288 234.167 93.472 232.455 93.472C230.647 93.472 229.351 94.304 229.351 95.952C229.351 97.04 229.911 97.712 231.207 98.16L233.063 98.784C233.735 99.024 234.071 99.344 234.071 99.744C234.071 100.368 233.399 100.752 232.503 100.752C231.495 100.752 230.839 100.304 230.695 99.648L229.127 99.888C229.367 101.312 230.567 102.208 232.471 102.208C234.327 102.208 235.671 101.344 235.671 99.696C235.671 98.56 235.047 97.824 233.623 97.296L231.751 96.656C231.223 96.464 230.951 96.192 230.951 95.824C230.951 95.264 231.543 94.928 232.327 94.928C233.207 94.928 233.783 95.296 233.959 95.856L235.527 95.584ZM236.617 95.136H237.881V99.456C237.881 100.176 238.137 100.784 238.649 101.28C239.161 101.76 239.785 102 240.537 102H241.753V100.4H240.665C240.025 100.4 239.545 99.888 239.545 99.232V95.136H241.753V93.68H239.545V92.032H237.881V93.68H236.617V95.136ZM251.639 98.448C251.655 98.176 251.671 97.968 251.671 97.84C251.671 96.592 251.255 95.552 250.423 94.72C249.607 93.888 248.583 93.472 247.351 93.472C246.119 93.472 245.079 93.888 244.247 94.72C243.431 95.552 243.015 96.592 243.015 97.84C243.015 99.088 243.447 100.128 244.295 100.96C245.143 101.792 246.215 102.208 247.479 102.208C249.143 102.208 250.551 101.408 251.319 100.112L249.687 99.616C249.159 100.304 248.423 100.656 247.479 100.656C246.087 100.656 244.983 99.744 244.727 98.448H251.639ZM244.743 97.12C245.047 95.888 246.087 95.024 247.303 95.024C248.599 95.024 249.655 95.888 249.959 97.12H244.743ZM255.012 93.68H253.348V102H255.012V97.36C255.012 96.736 255.22 96.224 255.652 95.824C256.084 95.408 256.628 95.2 257.252 95.2C257.556 95.2 257.796 95.248 257.972 95.328V93.472C256.612 93.472 255.636 93.952 255.012 94.896V93.68Z" fill="#323B4B"/>
        <circle opacity="0.1" cx="406" cy="37" r="17" fill="#5A7184"/>
        <rect opacity="0.1" x="110" y="34" width="51" height="6" rx="2" fill="#5A7184"/>
        <rect opacity="0.1" x="175" y="34" width="41" height="6" rx="2" fill="#5A7184"/>
        <rect opacity="0.1" x="230" y="34" width="41" height="6" rx="2" fill="#5A7184"/>
    </g>
    <defs>
        <filter id="filter0_d_8523_15894" x="34" y="176" width="380" height="68" filterUnits="userSpaceOnUse" color-interpolation-filters="sRGB">
            <feFlood flood-opacity="0" result="BackgroundImageFix"/>
            <feColorMatrix in="SourceAlpha" type="matrix" values="0 0 0 0 0 0 0 0 0 0 0 0 0 0 0 0 0 0 127 0" result="hardAlpha"/>
            <feOffset dy="12"/>
            <feGaussianBlur stdDeviation="8"/>
            <feColorMatrix type="matrix" values="0 0 0 0 0 0 0 0 0 0 0 0 0 0 0 0 0 0 0.08 0"/>
            <feBlend mode="normal" in2="BackgroundImageFix" result="effect1_dropShadow_8523_15894"/>
            <feBlend mode="normal" in="SourceGraphic" in2="effect1_dropShadow_8523_15894" result="shape"/>
        </filter>
        <clipPath id="clip0_8523_15894">
            <rect width="448" height="268" fill="white"/>
        </clipPath>
    </defs>
</svg>
