<svg width="448" height="295" viewBox="0 0 448 295" fill="none" xmlns="http://www.w3.org/2000/svg">
    <rect x="0.5" y="0.5" width="447" height="249" rx="7.5" fill="white" stroke="#ECEEF2"/>
    <path d="M87.504 45L85.136 40.92H82.96V45H81.12V33.8H85.6C86.6027 33.8 87.4507 34.152 88.144 34.856C88.848 35.5493 89.2 36.3973 89.2 37.4C89.2 38.1147 88.992 38.7707 88.576 39.368C88.1707 39.9547 87.6373 40.3813 86.976 40.648L89.52 45H87.504ZM82.96 35.528V39.272H85.6C86.0907 39.272 86.5067 39.0907 86.848 38.728C87.1893 38.3653 87.36 37.9227 87.36 37.4C87.36 36.8773 87.1893 36.4347 86.848 36.072C86.5067 35.7093 86.0907 35.528 85.6 35.528H82.96ZM91.9586 41.736C92.0866 42.344 92.38 42.8133 92.8386 43.144C93.2973 43.464 93.8573 43.624 94.5186 43.624C95.436 43.624 96.124 43.2933 96.5826 42.632L98.0066 43.464C97.2173 44.6267 96.0493 45.208 94.5026 45.208C93.2013 45.208 92.1506 44.8133 91.3506 44.024C90.5506 43.224 90.1506 42.216 90.1506 41C90.1506 39.8053 90.5453 38.808 91.3346 38.008C92.124 37.1973 93.1373 36.792 94.3746 36.792C95.548 36.792 96.508 37.2027 97.2546 38.024C98.012 38.8453 98.3906 39.8427 98.3906 41.016C98.3906 41.1973 98.3693 41.4373 98.3266 41.736H91.9586ZM91.9426 40.328H96.6466C96.5293 39.6773 96.2573 39.1867 95.8306 38.856C95.4146 38.5253 94.924 38.36 94.3586 38.36C93.7186 38.36 93.1853 38.536 92.7586 38.888C92.332 39.24 92.06 39.72 91.9426 40.328ZM103.84 45.208C102.635 45.208 101.627 44.8027 100.816 43.992C100.016 43.1813 99.6162 42.184 99.6162 41C99.6162 39.8053 100.016 38.808 100.816 38.008C101.627 37.1973 102.635 36.792 103.84 36.792C104.619 36.792 105.328 36.9787 105.968 37.352C106.608 37.7253 107.088 38.2267 107.408 38.856L105.92 39.72C105.739 39.336 105.462 39.0373 105.088 38.824C104.726 38.6 104.304 38.488 103.824 38.488C103.12 38.488 102.528 38.728 102.048 39.208C101.579 39.688 101.344 40.2853 101.344 41C101.344 41.7147 101.579 42.312 102.048 42.792C102.528 43.272 103.12 43.512 103.824 43.512C104.294 43.512 104.715 43.4 105.088 43.176C105.472 42.952 105.76 42.6533 105.952 42.28L107.44 43.128C107.099 43.768 106.608 44.2747 105.968 44.648C105.328 45.0213 104.619 45.208 103.84 45.208ZM110.124 41.736C110.252 42.344 110.546 42.8133 111.004 43.144C111.463 43.464 112.023 43.624 112.684 43.624C113.602 43.624 114.29 43.2933 114.748 42.632L116.172 43.464C115.383 44.6267 114.215 45.208 112.668 45.208C111.367 45.208 110.316 44.8133 109.516 44.024C108.716 43.224 108.316 42.216 108.316 41C108.316 39.8053 108.711 38.808 109.5 38.008C110.29 37.1973 111.303 36.792 112.54 36.792C113.714 36.792 114.674 37.2027 115.42 38.024C116.178 38.8453 116.556 39.8427 116.556 41.016C116.556 41.1973 116.535 41.4373 116.492 41.736H110.124ZM110.108 40.328H114.812C114.695 39.6773 114.423 39.1867 113.996 38.856C113.58 38.5253 113.09 38.36 112.524 38.36C111.884 38.36 111.351 38.536 110.924 38.888C110.498 39.24 110.226 39.72 110.108 40.328ZM119.909 35.48C119.695 35.6933 119.439 35.8 119.141 35.8C118.842 35.8 118.581 35.6933 118.357 35.48C118.143 35.256 118.037 34.9947 118.037 34.696C118.037 34.3973 118.143 34.1413 118.357 33.928C118.57 33.704 118.831 33.592 119.141 33.592C119.45 33.592 119.711 33.704 119.925 33.928C120.138 34.1413 120.245 34.3973 120.245 34.696C120.245 34.9947 120.133 35.256 119.909 35.48ZM118.277 45V37H120.005V45H118.277ZM127.635 37H129.523L126.403 45H124.403L121.283 37H123.171L125.411 43.08L127.635 37ZM131.865 41.736C131.993 42.344 132.286 42.8133 132.745 43.144C133.204 43.464 133.764 43.624 134.425 43.624C135.342 43.624 136.03 43.2933 136.489 42.632L137.913 43.464C137.124 44.6267 135.956 45.208 134.409 45.208C133.108 45.208 132.057 44.8133 131.257 44.024C130.457 43.224 130.057 42.216 130.057 41C130.057 39.8053 130.452 38.808 131.241 38.008C132.03 37.1973 133.044 36.792 134.281 36.792C135.454 36.792 136.414 37.2027 137.161 38.024C137.918 38.8453 138.297 39.8427 138.297 41.016C138.297 41.1973 138.276 41.4373 138.233 41.736H131.865ZM131.849 40.328H136.553C136.436 39.6773 136.164 39.1867 135.737 38.856C135.321 38.5253 134.83 38.36 134.265 38.36C133.625 38.36 133.092 38.536 132.665 38.888C132.238 39.24 131.966 39.72 131.849 40.328ZM148.457 33.8C149.513 33.8 150.393 34.152 151.097 34.856C151.812 35.56 152.169 36.4347 152.169 37.48C152.169 38.5147 151.812 39.3893 151.097 40.104C150.393 40.808 149.513 41.16 148.457 41.16H146.169V45H144.329V33.8H148.457ZM148.457 39.432C149.001 39.432 149.449 39.2507 149.801 38.888C150.153 38.5147 150.329 38.0453 150.329 37.48C150.329 36.9147 150.153 36.4507 149.801 36.088C149.449 35.7147 149.001 35.528 148.457 35.528H146.169V39.432H148.457ZM159.628 37H161.356V45H159.628V43.848C158.978 44.7547 158.044 45.208 156.828 45.208C155.73 45.208 154.791 44.8027 154.012 43.992C153.234 43.1707 152.844 42.1733 152.844 41C152.844 39.816 153.234 38.8187 154.012 38.008C154.791 37.1973 155.73 36.792 156.828 36.792C158.044 36.792 158.978 37.24 159.628 38.136V37ZM155.292 42.84C155.772 43.32 156.375 43.56 157.1 43.56C157.826 43.56 158.428 43.32 158.908 42.84C159.388 42.3493 159.628 41.736 159.628 41C159.628 40.264 159.388 39.656 158.908 39.176C158.428 38.6853 157.826 38.44 157.1 38.44C156.375 38.44 155.772 38.6853 155.292 39.176C154.812 39.656 154.572 40.264 154.572 41C154.572 41.736 154.812 42.3493 155.292 42.84ZM168.963 37H170.803L167.731 45.256C166.963 47.3253 165.661 48.3067 163.827 48.2V46.584C164.371 46.616 164.808 46.4987 165.139 46.232C165.469 45.976 165.741 45.5707 165.955 45.016L166.035 44.856L162.643 37H164.531L166.915 42.808L168.963 37ZM180.819 36.792C181.726 36.792 182.456 37.0853 183.011 37.672C183.566 38.2587 183.843 39.048 183.843 40.04V45H182.115V40.152C182.115 39.5973 181.976 39.1707 181.699 38.872C181.422 38.5627 181.043 38.408 180.563 38.408C180.03 38.408 179.603 38.584 179.283 38.936C178.974 39.288 178.819 39.816 178.819 40.52V45H177.091V40.152C177.091 39.5973 176.958 39.1707 176.691 38.872C176.435 38.5627 176.067 38.408 175.587 38.408C175.064 38.408 174.638 38.5893 174.307 38.952C173.976 39.304 173.811 39.8267 173.811 40.52V45H172.083V37H173.811V37.96C174.323 37.1813 175.086 36.792 176.099 36.792C177.123 36.792 177.88 37.2133 178.371 38.056C178.904 37.2133 179.72 36.792 180.819 36.792ZM187.252 41.736C187.38 42.344 187.674 42.8133 188.132 43.144C188.591 43.464 189.151 43.624 189.812 43.624C190.73 43.624 191.418 43.2933 191.876 42.632L193.3 43.464C192.511 44.6267 191.343 45.208 189.796 45.208C188.495 45.208 187.444 44.8133 186.644 44.024C185.844 43.224 185.444 42.216 185.444 41C185.444 39.8053 185.839 38.808 186.628 38.008C187.418 37.1973 188.431 36.792 189.668 36.792C190.842 36.792 191.802 37.2027 192.548 38.024C193.306 38.8453 193.684 39.8427 193.684 41.016C193.684 41.1973 193.663 41.4373 193.62 41.736H187.252ZM187.236 40.328H191.94C191.823 39.6773 191.551 39.1867 191.124 38.856C190.708 38.5253 190.218 38.36 189.652 38.36C189.012 38.36 188.479 38.536 188.052 38.888C187.626 39.24 187.354 39.72 187.236 40.328ZM199.613 36.792C200.53 36.792 201.272 37.0853 201.837 37.672C202.402 38.2587 202.685 39.064 202.685 40.088V45H200.957V40.264C200.957 39.6667 200.797 39.208 200.477 38.888C200.157 38.568 199.72 38.408 199.165 38.408C198.557 38.408 198.066 38.6 197.693 38.984C197.32 39.3573 197.133 39.9333 197.133 40.712V45H195.405V37H197.133V38.024C197.656 37.2027 198.482 36.792 199.613 36.792ZM209.21 38.664H207.226V42.504C207.226 42.8347 207.3 43.0747 207.45 43.224C207.599 43.3627 207.818 43.4427 208.106 43.464C208.404 43.4747 208.772 43.4693 209.21 43.448V45C207.887 45.16 206.938 45.048 206.362 44.664C205.786 44.2693 205.498 43.5493 205.498 42.504V38.664H204.026V37H205.498V35.272L207.226 34.76V37H209.21V38.664Z" fill="#323B4B"/>
    <path d="M86.3 77.6V78.92H83.936V86H82.556V78.92H80.18V77.6H86.3ZM89.1403 86.156C88.2603 86.156 87.5123 85.852 86.8963 85.244C86.2803 84.636 85.9723 83.888 85.9723 83C85.9723 82.112 86.2803 81.364 86.8963 80.756C87.5123 80.148 88.2603 79.844 89.1403 79.844C90.0283 79.844 90.7763 80.148 91.3843 80.756C92.0003 81.364 92.3083 82.112 92.3083 83C92.3083 83.888 92.0003 84.636 91.3843 85.244C90.7763 85.852 90.0283 86.156 89.1403 86.156ZM87.8083 84.356C88.1683 84.716 88.6123 84.896 89.1403 84.896C89.6683 84.896 90.1123 84.716 90.4723 84.356C90.8323 83.996 91.0123 83.544 91.0123 83C91.0123 82.456 90.8323 82.004 90.4723 81.644C90.1123 81.284 89.6683 81.104 89.1403 81.104C88.6123 81.104 88.1683 81.284 87.8083 81.644C87.4483 82.004 87.2683 82.456 87.2683 83C87.2683 83.544 87.4483 83.996 87.8083 84.356ZM96.861 81.248H95.373V84.128C95.373 84.376 95.429 84.556 95.541 84.668C95.653 84.772 95.817 84.832 96.033 84.848C96.257 84.856 96.533 84.852 96.861 84.836V86C95.869 86.12 95.157 86.036 94.725 85.748C94.293 85.452 94.077 84.912 94.077 84.128V81.248H92.973V80H94.077V78.704L95.373 78.32V80H96.861V81.248ZM102.692 80H103.988V86H102.692V85.136C102.204 85.816 101.504 86.156 100.592 86.156C99.7684 86.156 99.0644 85.852 98.4804 85.244C97.8964 84.628 97.6044 83.88 97.6044 83C97.6044 82.112 97.8964 81.364 98.4804 80.756C99.0644 80.148 99.7684 79.844 100.592 79.844C101.504 79.844 102.204 80.18 102.692 80.852V80ZM99.4404 84.38C99.8004 84.74 100.252 84.92 100.796 84.92C101.34 84.92 101.792 84.74 102.152 84.38C102.512 84.012 102.692 83.552 102.692 83C102.692 82.448 102.512 81.992 102.152 81.632C101.792 81.264 101.34 81.08 100.796 81.08C100.252 81.08 99.8004 81.264 99.4404 81.632C99.0804 81.992 98.9004 82.448 98.9004 83C98.9004 83.552 99.0804 84.012 99.4404 84.38ZM105.649 86V77.24H106.945V86H105.649ZM116.622 86L114.846 82.94H113.214V86H111.834V77.6H115.194C115.946 77.6 116.582 77.864 117.102 78.392C117.63 78.912 117.894 79.548 117.894 80.3C117.894 80.836 117.738 81.328 117.426 81.776C117.122 82.216 116.722 82.536 116.226 82.736L118.134 86H116.622ZM113.214 78.896V81.704H115.194C115.562 81.704 115.874 81.568 116.13 81.296C116.386 81.024 116.514 80.692 116.514 80.3C116.514 79.908 116.386 79.576 116.13 79.304C115.874 79.032 115.562 78.896 115.194 78.896H113.214ZM119.963 83.552C120.059 84.008 120.279 84.36 120.623 84.608C120.967 84.848 121.387 84.968 121.883 84.968C122.571 84.968 123.087 84.72 123.431 84.224L124.499 84.848C123.907 85.72 123.031 86.156 121.871 86.156C120.895 86.156 120.107 85.86 119.507 85.268C118.907 84.668 118.607 83.912 118.607 83C118.607 82.104 118.903 81.356 119.495 80.756C120.087 80.148 120.847 79.844 121.775 79.844C122.655 79.844 123.375 80.152 123.935 80.768C124.503 81.384 124.787 82.132 124.787 83.012C124.787 83.148 124.771 83.328 124.739 83.552H119.963ZM119.951 82.496H123.479C123.391 82.008 123.187 81.64 122.867 81.392C122.555 81.144 122.187 81.02 121.763 81.02C121.283 81.02 120.883 81.152 120.563 81.416C120.243 81.68 120.039 82.04 119.951 82.496ZM128.874 86.156C127.97 86.156 127.214 85.852 126.606 85.244C126.006 84.636 125.706 83.888 125.706 83C125.706 82.104 126.006 81.356 126.606 80.756C127.214 80.148 127.97 79.844 128.874 79.844C129.458 79.844 129.99 79.984 130.47 80.264C130.95 80.544 131.31 80.92 131.55 81.392L130.434 82.04C130.298 81.752 130.09 81.528 129.81 81.368C129.538 81.2 129.222 81.116 128.862 81.116C128.334 81.116 127.89 81.296 127.53 81.656C127.178 82.016 127.002 82.464 127.002 83C127.002 83.536 127.178 83.984 127.53 84.344C127.89 84.704 128.334 84.884 128.862 84.884C129.214 84.884 129.53 84.8 129.81 84.632C130.098 84.464 130.314 84.24 130.458 83.96L131.574 84.596C131.318 85.076 130.95 85.456 130.47 85.736C129.99 86.016 129.458 86.156 128.874 86.156ZM133.587 83.552C133.683 84.008 133.903 84.36 134.247 84.608C134.591 84.848 135.011 84.968 135.507 84.968C136.195 84.968 136.711 84.72 137.055 84.224L138.123 84.848C137.531 85.72 136.655 86.156 135.495 86.156C134.519 86.156 133.731 85.86 133.131 85.268C132.531 84.668 132.231 83.912 132.231 83C132.231 82.104 132.527 81.356 133.119 80.756C133.711 80.148 134.471 79.844 135.399 79.844C136.279 79.844 136.999 80.152 137.559 80.768C138.127 81.384 138.411 82.132 138.411 83.012C138.411 83.148 138.395 83.328 138.363 83.552H133.587ZM133.575 82.496H137.103C137.015 82.008 136.811 81.64 136.491 81.392C136.179 81.144 135.811 81.02 135.387 81.02C134.907 81.02 134.507 81.152 134.187 81.416C133.867 81.68 133.663 82.04 133.575 82.496ZM140.925 78.86C140.765 79.02 140.573 79.1 140.349 79.1C140.125 79.1 139.929 79.02 139.761 78.86C139.601 78.692 139.521 78.496 139.521 78.272C139.521 78.048 139.601 77.856 139.761 77.696C139.921 77.528 140.117 77.444 140.349 77.444C140.581 77.444 140.777 77.528 140.937 77.696C141.097 77.856 141.177 78.048 141.177 78.272C141.177 78.496 141.093 78.692 140.925 78.86ZM139.701 86V80H140.997V86H139.701ZM146.72 80H148.136L145.796 86H144.296L141.956 80H143.372L145.052 84.56L146.72 80ZM149.892 83.552C149.988 84.008 150.208 84.36 150.552 84.608C150.896 84.848 151.316 84.968 151.812 84.968C152.5 84.968 153.016 84.72 153.36 84.224L154.428 84.848C153.836 85.72 152.96 86.156 151.8 86.156C150.824 86.156 150.036 85.86 149.436 85.268C148.836 84.668 148.536 83.912 148.536 83C148.536 82.104 148.832 81.356 149.424 80.756C150.016 80.148 150.776 79.844 151.704 79.844C152.584 79.844 153.304 80.152 153.864 80.768C154.432 81.384 154.716 82.132 154.716 83.012C154.716 83.148 154.7 83.328 154.668 83.552H149.892ZM149.88 82.496H153.408C153.32 82.008 153.116 81.64 152.796 81.392C152.484 81.144 152.116 81.02 151.692 81.02C151.212 81.02 150.812 81.152 150.492 81.416C150.172 81.68 149.968 82.04 149.88 82.496ZM160.724 77.6H162.02V86H160.724V85.136C160.236 85.816 159.536 86.156 158.624 86.156C157.8 86.156 157.096 85.852 156.512 85.244C155.928 84.628 155.636 83.88 155.636 83C155.636 82.112 155.928 81.364 156.512 80.756C157.096 80.148 157.8 79.844 158.624 79.844C159.536 79.844 160.236 80.18 160.724 80.852V77.6ZM157.472 84.38C157.832 84.74 158.284 84.92 158.828 84.92C159.372 84.92 159.824 84.74 160.184 84.38C160.544 84.012 160.724 83.552 160.724 83C160.724 82.448 160.544 81.992 160.184 81.632C159.824 81.264 159.372 81.08 158.828 81.08C158.284 81.08 157.832 81.264 157.472 81.632C157.112 81.992 156.932 82.448 156.932 83C156.932 83.552 157.112 84.012 157.472 84.38Z" fill="#323B4B"/>
    <path d="M86.3 163.6V164.92H83.936V172H82.556V164.92H80.18V163.6H86.3ZM89.1403 172.156C88.2603 172.156 87.5123 171.852 86.8963 171.244C86.2803 170.636 85.9723 169.888 85.9723 169C85.9723 168.112 86.2803 167.364 86.8963 166.756C87.5123 166.148 88.2603 165.844 89.1403 165.844C90.0283 165.844 90.7763 166.148 91.3843 166.756C92.0003 167.364 92.3083 168.112 92.3083 169C92.3083 169.888 92.0003 170.636 91.3843 171.244C90.7763 171.852 90.0283 172.156 89.1403 172.156ZM87.8083 170.356C88.1683 170.716 88.6123 170.896 89.1403 170.896C89.6683 170.896 90.1123 170.716 90.4723 170.356C90.8323 169.996 91.0123 169.544 91.0123 169C91.0123 168.456 90.8323 168.004 90.4723 167.644C90.1123 167.284 89.6683 167.104 89.1403 167.104C88.6123 167.104 88.1683 167.284 87.8083 167.644C87.4483 168.004 87.2683 168.456 87.2683 169C87.2683 169.544 87.4483 169.996 87.8083 170.356ZM96.861 167.248H95.373V170.128C95.373 170.376 95.429 170.556 95.541 170.668C95.653 170.772 95.817 170.832 96.033 170.848C96.257 170.856 96.533 170.852 96.861 170.836V172C95.869 172.12 95.157 172.036 94.725 171.748C94.293 171.452 94.077 170.912 94.077 170.128V167.248H92.973V166H94.077V164.704L95.373 164.32V166H96.861V167.248ZM102.692 166H103.988V172H102.692V171.136C102.204 171.816 101.504 172.156 100.592 172.156C99.7684 172.156 99.0644 171.852 98.4804 171.244C97.8964 170.628 97.6044 169.88 97.6044 169C97.6044 168.112 97.8964 167.364 98.4804 166.756C99.0644 166.148 99.7684 165.844 100.592 165.844C101.504 165.844 102.204 166.18 102.692 166.852V166ZM99.4404 170.38C99.8004 170.74 100.252 170.92 100.796 170.92C101.34 170.92 101.792 170.74 102.152 170.38C102.512 170.012 102.692 169.552 102.692 169C102.692 168.448 102.512 167.992 102.152 167.632C101.792 167.264 101.34 167.08 100.796 167.08C100.252 167.08 99.8004 167.264 99.4404 167.632C99.0804 167.992 98.9004 168.448 98.9004 169C98.9004 169.552 99.0804 170.012 99.4404 170.38ZM105.649 172V163.24H106.945V172H105.649ZM114.93 163.6C115.722 163.6 116.382 163.864 116.91 164.392C117.446 164.92 117.714 165.576 117.714 166.36C117.714 167.136 117.446 167.792 116.91 168.328C116.382 168.856 115.722 169.12 114.93 169.12H113.214V172H111.834V163.6H114.93ZM114.93 167.824C115.338 167.824 115.674 167.688 115.938 167.416C116.202 167.136 116.334 166.784 116.334 166.36C116.334 165.936 116.202 165.588 115.938 165.316C115.674 165.036 115.338 164.896 114.93 164.896H113.214V167.824H114.93ZM119.576 169.552C119.672 170.008 119.892 170.36 120.236 170.608C120.58 170.848 121 170.968 121.496 170.968C122.184 170.968 122.7 170.72 123.044 170.224L124.112 170.848C123.52 171.72 122.644 172.156 121.484 172.156C120.508 172.156 119.72 171.86 119.12 171.268C118.52 170.668 118.22 169.912 118.22 169C118.22 168.104 118.516 167.356 119.108 166.756C119.7 166.148 120.46 165.844 121.388 165.844C122.268 165.844 122.988 166.152 123.548 166.768C124.116 167.384 124.4 168.132 124.4 169.012C124.4 169.148 124.384 169.328 124.352 169.552H119.576ZM119.564 168.496H123.092C123.004 168.008 122.8 167.64 122.48 167.392C122.168 167.144 121.8 167.02 121.376 167.02C120.896 167.02 120.496 167.152 120.176 167.416C119.856 167.68 119.652 168.04 119.564 168.496ZM128.846 165.844C129.534 165.844 130.09 166.064 130.514 166.504C130.938 166.944 131.15 167.548 131.15 168.316V172H129.854V168.448C129.854 168 129.734 167.656 129.494 167.416C129.254 167.176 128.926 167.056 128.51 167.056C128.054 167.056 127.686 167.2 127.406 167.488C127.126 167.768 126.986 168.2 126.986 168.784V172H125.69V166H126.986V166.768C127.378 166.152 127.998 165.844 128.846 165.844ZM137.448 163.6H138.744V172H137.448V171.136C136.96 171.816 136.26 172.156 135.348 172.156C134.524 172.156 133.82 171.852 133.236 171.244C132.652 170.628 132.36 169.88 132.36 169C132.36 168.112 132.652 167.364 133.236 166.756C133.82 166.148 134.524 165.844 135.348 165.844C136.26 165.844 136.96 166.18 137.448 166.852V163.6ZM134.196 170.38C134.556 170.74 135.008 170.92 135.552 170.92C136.096 170.92 136.548 170.74 136.908 170.38C137.268 170.012 137.448 169.552 137.448 169C137.448 168.448 137.268 167.992 136.908 167.632C136.548 167.264 136.096 167.08 135.552 167.08C135.008 167.08 134.556 167.264 134.196 167.632C133.836 167.992 133.656 168.448 133.656 169C133.656 169.552 133.836 170.012 134.196 170.38ZM141.628 164.86C141.468 165.02 141.276 165.1 141.052 165.1C140.828 165.1 140.632 165.02 140.464 164.86C140.304 164.692 140.224 164.496 140.224 164.272C140.224 164.048 140.304 163.856 140.464 163.696C140.624 163.528 140.82 163.444 141.052 163.444C141.284 163.444 141.48 163.528 141.64 163.696C141.8 163.856 141.88 164.048 141.88 164.272C141.88 164.496 141.796 164.692 141.628 164.86ZM140.404 172V166H141.7V172H140.404ZM146.511 165.844C147.199 165.844 147.755 166.064 148.179 166.504C148.603 166.944 148.815 167.548 148.815 168.316V172H147.519V168.448C147.519 168 147.399 167.656 147.159 167.416C146.919 167.176 146.591 167.056 146.175 167.056C145.719 167.056 145.351 167.2 145.071 167.488C144.791 167.768 144.651 168.2 144.651 168.784V172H143.355V166H144.651V166.768C145.043 166.152 145.663 165.844 146.511 165.844ZM155.137 166H156.409V171.724C156.409 172.636 156.109 173.336 155.509 173.824C154.909 174.312 154.181 174.556 153.325 174.556C151.941 174.556 150.993 174.072 150.481 173.104L151.597 172.456C151.909 173.072 152.493 173.38 153.349 173.38C153.909 173.38 154.345 173.232 154.657 172.936C154.977 172.648 155.137 172.244 155.137 171.724V170.992C154.649 171.688 153.953 172.036 153.049 172.036C152.201 172.036 151.485 171.736 150.901 171.136C150.317 170.528 150.025 169.796 150.025 168.94C150.025 168.084 150.317 167.356 150.901 166.756C151.485 166.148 152.201 165.844 153.049 165.844C153.953 165.844 154.649 166.192 155.137 166.888V166ZM151.861 170.284C152.229 170.644 152.685 170.824 153.229 170.824C153.773 170.824 154.225 170.644 154.585 170.284C154.953 169.924 155.137 169.476 155.137 168.94C155.137 168.404 154.953 167.956 154.585 167.596C154.225 167.236 153.773 167.056 153.229 167.056C152.685 167.056 152.229 167.236 151.861 167.596C151.501 167.956 151.321 168.404 151.321 168.94C151.321 169.476 151.501 169.924 151.861 170.284Z" fill="#323B4B"/>
    <g filter="url(#filter0_d_8523_15617)">
        <rect x="80" y="186" width="348" height="80" rx="8" fill="white"/>
        <rect x="80" y="186" width="348" height="80" rx="8" stroke="#ECEEF2"/>
    </g>
    <path d="M326.676 212.046L328.338 208.074H329.382L326.058 215.496H325.002L326.118 213L324.09 208.074H325.152L326.676 212.046ZM332.453 213.144C331.945 213.144 331.493 213.03 331.097 212.802C330.705 212.574 330.397 212.266 330.173 211.878C329.949 211.486 329.837 211.044 329.837 210.552C329.837 210.06 329.949 209.616 330.173 209.22C330.397 208.824 330.705 208.51 331.097 208.278C331.493 208.046 331.945 207.93 332.453 207.93C332.957 207.93 333.403 208.046 333.791 208.278C334.183 208.51 334.489 208.824 334.709 209.22C334.929 209.616 335.039 210.06 335.039 210.552C335.039 211.044 334.929 211.486 334.709 211.878C334.489 212.266 334.183 212.574 333.791 212.802C333.403 213.03 332.957 213.144 332.453 213.144ZM332.453 212.25C332.773 212.25 333.051 212.176 333.287 212.028C333.527 211.88 333.713 211.678 333.845 211.422C333.977 211.162 334.043 210.87 334.043 210.546C334.043 210.222 333.977 209.93 333.845 209.67C333.713 209.41 333.527 209.204 333.287 209.052C333.051 208.9 332.773 208.824 332.453 208.824C332.129 208.824 331.847 208.9 331.607 209.052C331.367 209.204 331.179 209.41 331.043 209.67C330.911 209.93 330.845 210.222 330.845 210.546C330.845 210.87 330.911 211.162 331.043 211.422C331.179 211.678 331.367 211.88 331.607 212.028C331.847 212.176 332.129 212.25 332.453 212.25ZM337.174 210.558C337.174 211.074 337.284 211.486 337.504 211.794C337.728 212.098 338.07 212.25 338.53 212.25C338.994 212.25 339.336 212.098 339.556 211.794C339.776 211.486 339.886 211.074 339.886 210.558V208.074H340.918V210.702C340.918 211.182 340.824 211.606 340.636 211.974C340.452 212.342 340.182 212.63 339.826 212.838C339.474 213.042 339.042 213.144 338.53 213.144C338.022 213.144 337.59 213.042 337.234 212.838C336.882 212.63 336.612 212.342 336.424 211.974C336.24 211.606 336.148 211.182 336.148 210.702V208.074H337.174V210.558ZM348.115 207.93C348.439 207.93 348.753 207.998 349.057 208.134C349.365 208.27 349.617 208.486 349.813 208.782C350.013 209.074 350.113 209.456 350.113 209.928V213H349.057V210.132C349.057 209.644 348.945 209.29 348.721 209.07C348.501 208.846 348.211 208.734 347.851 208.734C347.611 208.734 347.381 208.802 347.161 208.938C346.941 209.07 346.759 209.254 346.615 209.49C346.475 209.722 346.405 209.986 346.405 210.282V213H345.349V204.744H346.405V208.95C346.441 208.814 346.537 208.666 346.693 208.506C346.853 208.346 347.057 208.21 347.305 208.098C347.553 207.986 347.823 207.93 348.115 207.93ZM355.485 213V212.04C355.453 212.14 355.359 212.278 355.203 212.454C355.051 212.63 354.841 212.79 354.573 212.934C354.309 213.074 353.997 213.144 353.637 213.144C353.181 213.144 352.767 213.036 352.395 212.82C352.027 212.604 351.733 212.302 351.513 211.914C351.297 211.522 351.189 211.064 351.189 210.54C351.189 210.016 351.297 209.56 351.513 209.172C351.733 208.78 352.027 208.476 352.395 208.26C352.767 208.04 353.181 207.93 353.637 207.93C353.993 207.93 354.301 207.994 354.561 208.122C354.825 208.25 355.035 208.398 355.191 208.566C355.351 208.734 355.445 208.878 355.473 208.998V208.074H356.505V213H355.485ZM352.221 210.54C352.221 210.896 352.299 211.204 352.455 211.464C352.611 211.724 352.813 211.926 353.061 212.07C353.313 212.21 353.581 212.28 353.865 212.28C354.169 212.28 354.441 212.208 354.681 212.064C354.921 211.92 355.111 211.718 355.251 211.458C355.391 211.194 355.461 210.888 355.461 210.54C355.461 210.192 355.391 209.888 355.251 209.628C355.111 209.364 354.921 209.16 354.681 209.016C354.441 208.868 354.169 208.794 353.865 208.794C353.581 208.794 353.313 208.866 353.061 209.01C352.813 209.154 352.611 209.356 352.455 209.616C352.299 209.876 352.221 210.184 352.221 210.54ZM357.408 208.074H358.53L360.138 212.034L361.746 208.074H362.862L360.756 213H359.526L357.408 208.074ZM364.495 210.75C364.499 211.046 364.563 211.316 364.687 211.56C364.811 211.804 364.995 211.998 365.239 212.142C365.487 212.286 365.791 212.358 366.151 212.358C366.455 212.358 366.713 212.314 366.925 212.226C367.141 212.134 367.317 212.026 367.453 211.902C367.589 211.774 367.687 211.66 367.747 211.56L368.257 212.19C368.125 212.382 367.963 212.55 367.771 212.694C367.583 212.838 367.353 212.948 367.081 213.024C366.809 213.104 366.477 213.144 366.085 213.144C365.557 213.144 365.099 213.032 364.711 212.808C364.327 212.58 364.031 212.266 363.823 211.866C363.615 211.462 363.511 211 363.511 210.48C363.511 210 363.609 209.568 363.805 209.184C364.001 208.796 364.285 208.49 364.657 208.266C365.033 208.042 365.485 207.93 366.013 207.93C366.497 207.93 366.917 208.032 367.273 208.236C367.633 208.436 367.911 208.72 368.107 209.088C368.307 209.456 368.407 209.896 368.407 210.408C368.407 210.44 368.405 210.498 368.401 210.582C368.397 210.662 368.393 210.718 368.389 210.75H364.495ZM367.411 209.964C367.407 209.8 367.359 209.62 367.267 209.424C367.179 209.228 367.035 209.06 366.835 208.92C366.635 208.78 366.365 208.71 366.025 208.71C365.673 208.71 365.389 208.778 365.173 208.914C364.961 209.05 364.805 209.216 364.705 209.412C364.605 209.604 364.547 209.788 364.531 209.964H367.411Z" fill="#828282"/>
    <path d="M296.529 212.706H288.796C287.729 212.706 286.863 211.842 286.863 210.776C286.863 209.71 287.729 208.847 288.796 208.847H296.529C297.597 208.847 298.462 209.71 298.462 210.776C298.462 211.842 297.597 212.706 296.529 212.706Z" stroke="#5B2EBC" stroke-width="1.37671" stroke-linecap="round" stroke-linejoin="round"/>
    <path d="M296.527 212.705C298.558 213.51 300.329 214.917 301.662 216.682" stroke="#5B2EBC" stroke-width="1.37671" stroke-linecap="round" stroke-linejoin="round"/>
    <path d="M288.797 212.704C284.292 214.489 281 219.241 281 224.281C281 230.675 286.258 231.999 292.663 231.999C295.689 231.999 298.491 231.798 300.508 230.719C303.715 229.004 305.551 224.059 301.664 216.681" stroke="#5B2EBC" stroke-width="1.37671" stroke-linecap="round" stroke-linejoin="round"/>
    <path d="M294.598 202.93H298.464L296.531 208.847" stroke="#5B2EBC" stroke-width="1.37671" stroke-linecap="round" stroke-linejoin="round"/>
    <path d="M288.796 208.846L286.863 202.929H290.73C290.73 201.864 291.595 201 292.663 201C293.73 201 294.596 201.864 294.596 202.929V204.859" stroke="#5B2EBC" stroke-width="1.37671" stroke-linecap="round" stroke-linejoin="round"/>
    <path d="M294.593 220.706C294.593 219.64 293.727 218.776 292.66 218.776C291.592 218.776 290.727 219.64 290.727 220.706C290.727 221.771 291.592 222.635 292.66 222.635C293.727 222.635 294.593 223.499 294.593 224.565C294.593 225.63 293.727 226.494 292.66 226.494C291.592 226.494 290.727 225.63 290.727 224.565" stroke="#5B2EBC" stroke-width="1.37671" stroke-linecap="round" stroke-linejoin="round"/>
    <path d="M292.666 216.564V218.777" stroke="#5B2EBC" stroke-width="1.37671" stroke-linecap="round" stroke-linejoin="round"/>
    <path d="M292.666 226.494V228.141" stroke="#5B2EBC" stroke-width="1.37671" stroke-linecap="round" stroke-linejoin="round"/>
    <path d="M307.784 219.067C311.213 219.067 313.996 221.868 313.996 225.317C313.996 228.767 311.213 231.567 307.784 231.567C304.356 231.567 301.572 228.767 301.572 225.317C301.572 221.868 304.356 219.067 307.784 219.067Z" stroke="#5B2EBC" stroke-width="1.49307" stroke-linecap="round"/>
    <path d="M307.887 225.242C307.887 225.242 307.887 222.715 307.887 222.291" stroke="#5B2EBC" stroke-width="1.37566" stroke-linecap="round" stroke-linejoin="round"/>
    <path d="M307.846 225.219C307.846 225.219 311.326 224.492 311.91 224.37" stroke="#5B2EBC" stroke-width="1.37566" stroke-linecap="round" stroke-linejoin="round"/>
    <rect opacity="0.1" x="90" y="224" width="127" height="4" rx="1" fill="#183B56"/>
    <rect opacity="0.1" x="90" y="205" width="86" height="4" rx="1" fill="#183B56"/>
    <rect opacity="0.1" x="90" y="243" width="217" height="4" rx="1" fill="#183B56"/>
    <g clip-path="url(#clip0_8523_15617)">
        <g filter="url(#filter1_d_8523_15617)">
            <rect x="80" y="100" width="348" height="36" rx="8" fill="white"/>
            <rect x="80" y="100" width="348" height="36" rx="8" stroke="#ECEEF2"/>
        </g>
        <path d="M97.94 123L95.78 119.232V118.344H96.5C96.788 118.344 97.04 118.304 97.256 118.224C97.48 118.136 97.664 118.012 97.808 117.852C97.96 117.692 98.064 117.5 98.12 117.276H95.78V116.388H98.108C98.06 116.18 97.976 115.996 97.856 115.836C97.744 115.676 97.592 115.552 97.4 115.464C97.216 115.368 96.992 115.32 96.728 115.32H95.78V114.432H101.192V115.32H99.308C99.444 115.472 99.556 115.636 99.644 115.812C99.74 115.988 99.804 116.18 99.836 116.388H101.192V117.276H99.86C99.78 117.868 99.552 118.332 99.176 118.668C98.8 118.996 98.316 119.22 97.724 119.34L100.076 123H97.94ZM111.324 123H105.523V121.963L107.744 119.713C108.174 119.275 108.527 118.898 108.805 118.582C109.082 118.262 109.287 117.959 109.42 117.674C109.557 117.389 109.625 117.078 109.625 116.742C109.625 116.328 109.506 116.016 109.268 115.805C109.029 115.59 108.715 115.482 108.324 115.482C107.953 115.482 107.609 115.557 107.293 115.705C106.98 115.85 106.656 116.057 106.32 116.326L105.564 115.418C105.803 115.215 106.057 115.029 106.326 114.861C106.6 114.693 106.904 114.561 107.24 114.463C107.576 114.361 107.959 114.311 108.389 114.311C108.932 114.311 109.4 114.408 109.795 114.604C110.189 114.795 110.492 115.062 110.703 115.406C110.918 115.75 111.025 116.15 111.025 116.607C111.025 117.068 110.934 117.494 110.75 117.885C110.566 118.275 110.305 118.662 109.965 119.045C109.625 119.424 109.221 119.836 108.752 120.281L107.27 121.729V121.793H111.324V123ZM116.439 123H115.057V117.486C115.057 117.303 115.059 117.119 115.062 116.936C115.066 116.752 115.07 116.572 115.074 116.396C115.082 116.221 115.092 116.053 115.104 115.893C115.021 115.982 114.92 116.08 114.799 116.186C114.682 116.291 114.557 116.4 114.424 116.514L113.439 117.299L112.748 116.426L115.291 114.434H116.439V123ZM125.059 123H119.258V121.963L121.479 119.713C121.908 119.275 122.262 118.898 122.539 118.582C122.816 118.262 123.021 117.959 123.154 117.674C123.291 117.389 123.359 117.078 123.359 116.742C123.359 116.328 123.24 116.016 123.002 115.805C122.764 115.59 122.449 115.482 122.059 115.482C121.688 115.482 121.344 115.557 121.027 115.705C120.715 115.85 120.391 116.057 120.055 116.326L119.299 115.418C119.537 115.215 119.791 115.029 120.061 114.861C120.334 114.693 120.639 114.561 120.975 114.463C121.311 114.361 121.693 114.311 122.123 114.311C122.666 114.311 123.135 114.408 123.529 114.604C123.924 114.795 124.227 115.062 124.438 115.406C124.652 115.75 124.76 116.15 124.76 116.607C124.76 117.068 124.668 117.494 124.484 117.885C124.301 118.275 124.039 118.662 123.699 119.045C123.359 119.424 122.955 119.836 122.486 120.281L121.004 121.729V121.793H125.059V123ZM132.236 121.119H131.076V123H129.717V121.119H125.82V120.076L129.734 114.41H131.076V119.977H132.236V121.119ZM129.717 119.977V117.85C129.717 117.674 129.719 117.496 129.723 117.316C129.73 117.133 129.738 116.957 129.746 116.789C129.754 116.621 129.762 116.467 129.77 116.326C129.777 116.182 129.783 116.062 129.787 115.969H129.74C129.666 116.125 129.584 116.285 129.494 116.449C129.404 116.609 129.309 116.766 129.207 116.918L127.098 119.977H129.717ZM135.904 117.645C136.455 117.645 136.939 117.744 137.357 117.943C137.779 118.139 138.107 118.428 138.342 118.811C138.576 119.189 138.693 119.654 138.693 120.205C138.693 120.807 138.566 121.326 138.312 121.764C138.059 122.197 137.686 122.531 137.193 122.766C136.701 123 136.102 123.117 135.395 123.117C134.945 123.117 134.525 123.078 134.135 123C133.748 122.922 133.414 122.805 133.133 122.648V121.406C133.426 121.57 133.777 121.705 134.188 121.811C134.598 121.912 134.99 121.963 135.365 121.963C135.764 121.963 136.105 121.904 136.391 121.787C136.676 121.67 136.895 121.49 137.047 121.248C137.203 121.006 137.281 120.699 137.281 120.328C137.281 119.836 137.123 119.457 136.807 119.191C136.494 118.922 136.004 118.787 135.336 118.787C135.102 118.787 134.852 118.809 134.586 118.852C134.324 118.891 134.105 118.934 133.93 118.98L133.326 118.623L133.648 114.434H138.102V115.646H134.861L134.674 117.779C134.814 117.748 134.982 117.719 135.178 117.691C135.373 117.66 135.615 117.645 135.904 117.645ZM140.105 122.273C140.105 121.953 140.188 121.729 140.352 121.6C140.52 121.467 140.723 121.4 140.961 121.4C141.199 121.4 141.402 121.467 141.57 121.6C141.742 121.729 141.828 121.953 141.828 122.273C141.828 122.586 141.742 122.812 141.57 122.953C141.402 123.09 141.199 123.158 140.961 123.158C140.723 123.158 140.52 123.09 140.352 122.953C140.188 122.812 140.105 122.586 140.105 122.273ZM148.625 116.391C148.625 116.777 148.547 117.113 148.391 117.398C148.234 117.684 148.02 117.918 147.746 118.102C147.477 118.281 147.164 118.41 146.809 118.488V118.529C147.492 118.615 148.008 118.83 148.355 119.174C148.707 119.518 148.883 119.973 148.883 120.539C148.883 121.035 148.764 121.479 148.525 121.869C148.287 122.256 147.922 122.561 147.43 122.783C146.938 123.006 146.305 123.117 145.531 123.117C145.066 123.117 144.635 123.08 144.236 123.006C143.842 122.932 143.467 122.812 143.111 122.648V121.424C143.475 121.604 143.861 121.742 144.271 121.84C144.682 121.938 145.07 121.986 145.438 121.986C146.152 121.986 146.662 121.854 146.967 121.588C147.271 121.318 147.424 120.947 147.424 120.475C147.424 120.17 147.344 119.92 147.184 119.725C147.027 119.529 146.783 119.383 146.451 119.285C146.123 119.188 145.699 119.139 145.18 119.139H144.424V118.031H145.186C145.682 118.031 146.08 117.973 146.381 117.855C146.682 117.734 146.898 117.568 147.031 117.357C147.168 117.146 147.236 116.9 147.236 116.619C147.236 116.252 147.117 115.967 146.879 115.764C146.641 115.557 146.287 115.453 145.818 115.453C145.529 115.453 145.266 115.486 145.027 115.553C144.793 115.619 144.576 115.703 144.377 115.805C144.178 115.906 143.988 116.016 143.809 116.133L143.146 115.178C143.471 114.936 143.857 114.73 144.307 114.562C144.756 114.395 145.279 114.311 145.877 114.311C146.756 114.311 147.434 114.5 147.91 114.879C148.387 115.254 148.625 115.758 148.625 116.391ZM152.932 117.645C153.482 117.645 153.967 117.744 154.385 117.943C154.807 118.139 155.135 118.428 155.369 118.811C155.604 119.189 155.721 119.654 155.721 120.205C155.721 120.807 155.594 121.326 155.34 121.764C155.086 122.197 154.713 122.531 154.221 122.766C153.729 123 153.129 123.117 152.422 123.117C151.973 123.117 151.553 123.078 151.162 123C150.775 122.922 150.441 122.805 150.16 122.648V121.406C150.453 121.57 150.805 121.705 151.215 121.811C151.625 121.912 152.018 121.963 152.393 121.963C152.791 121.963 153.133 121.904 153.418 121.787C153.703 121.67 153.922 121.49 154.074 121.248C154.23 121.006 154.309 120.699 154.309 120.328C154.309 119.836 154.15 119.457 153.834 119.191C153.521 118.922 153.031 118.787 152.363 118.787C152.129 118.787 151.879 118.809 151.613 118.852C151.352 118.891 151.133 118.934 150.957 118.98L150.354 118.623L150.676 114.434H155.129V115.646H151.889L151.701 117.779C151.842 117.748 152.01 117.719 152.205 117.691C152.4 117.66 152.643 117.645 152.932 117.645Z" fill="#5A7184"/>
    </g>
    <path d="M326.94 233L324.78 229.232V228.344H325.5C325.788 228.344 326.04 228.304 326.256 228.224C326.48 228.136 326.664 228.012 326.808 227.852C326.96 227.692 327.064 227.5 327.12 227.276H324.78V226.388H327.108C327.06 226.18 326.976 225.996 326.856 225.836C326.744 225.676 326.592 225.552 326.4 225.464C326.216 225.368 325.992 225.32 325.728 225.32H324.78V224.432H330.192V225.32H328.308C328.444 225.472 328.556 225.636 328.644 225.812C328.74 225.988 328.804 226.18 328.836 226.388H330.192V227.276H328.86C328.78 227.868 328.552 228.332 328.176 228.668C327.8 228.996 327.316 229.22 326.724 229.34L329.076 233H326.94ZM337.436 227.645C337.986 227.645 338.471 227.744 338.889 227.943C339.311 228.139 339.639 228.428 339.873 228.811C340.107 229.189 340.225 229.654 340.225 230.205C340.225 230.807 340.098 231.326 339.844 231.764C339.59 232.197 339.217 232.531 338.725 232.766C338.232 233 337.633 233.117 336.926 233.117C336.477 233.117 336.057 233.078 335.666 233C335.279 232.922 334.945 232.805 334.664 232.648V231.406C334.957 231.57 335.309 231.705 335.719 231.811C336.129 231.912 336.521 231.963 336.896 231.963C337.295 231.963 337.637 231.904 337.922 231.787C338.207 231.67 338.426 231.49 338.578 231.248C338.734 231.006 338.812 230.699 338.812 230.328C338.812 229.836 338.654 229.457 338.338 229.191C338.025 228.922 337.535 228.787 336.867 228.787C336.633 228.787 336.383 228.809 336.117 228.852C335.855 228.891 335.637 228.934 335.461 228.98L334.857 228.623L335.18 224.434H339.633V225.646H336.393L336.205 227.779C336.346 227.748 336.514 227.719 336.709 227.691C336.904 227.66 337.146 227.645 337.436 227.645ZM341.402 229.35C341.402 228.846 341.438 228.35 341.508 227.861C341.582 227.373 341.707 226.916 341.883 226.49C342.059 226.064 342.301 225.689 342.609 225.365C342.922 225.041 343.314 224.787 343.787 224.604C344.26 224.416 344.828 224.322 345.492 224.322C345.664 224.322 345.857 224.33 346.072 224.346C346.287 224.361 346.465 224.387 346.605 224.422V225.564C346.453 225.521 346.285 225.488 346.102 225.465C345.922 225.441 345.742 225.43 345.562 225.43C344.844 225.43 344.283 225.566 343.881 225.84C343.479 226.109 343.191 226.48 343.02 226.953C342.848 227.422 342.748 227.959 342.721 228.564H342.791C342.908 228.369 343.055 228.195 343.23 228.043C343.406 227.891 343.621 227.77 343.875 227.68C344.129 227.586 344.424 227.539 344.76 227.539C345.26 227.539 345.695 227.645 346.066 227.855C346.438 228.062 346.723 228.363 346.922 228.758C347.125 229.152 347.227 229.631 347.227 230.193C347.227 230.799 347.111 231.32 346.881 231.758C346.654 232.195 346.33 232.531 345.908 232.766C345.49 233 344.992 233.117 344.414 233.117C343.988 233.117 343.592 233.039 343.225 232.883C342.861 232.727 342.543 232.492 342.27 232.18C341.996 231.867 341.783 231.477 341.631 231.008C341.479 230.535 341.402 229.982 341.402 229.35ZM344.391 231.98C344.836 231.98 345.193 231.836 345.463 231.547C345.736 231.254 345.873 230.807 345.873 230.205C345.873 229.717 345.752 229.33 345.51 229.045C345.271 228.76 344.912 228.617 344.432 228.617C344.104 228.617 343.816 228.688 343.57 228.828C343.324 228.969 343.133 229.146 342.996 229.361C342.863 229.576 342.797 229.795 342.797 230.018C342.797 230.244 342.83 230.473 342.896 230.703C342.963 230.934 343.062 231.146 343.195 231.342C343.328 231.533 343.494 231.688 343.693 231.805C343.893 231.922 344.125 231.98 344.391 231.98ZM354.059 228.711C354.059 229.402 354.004 230.021 353.895 230.568C353.789 231.111 353.621 231.572 353.391 231.951C353.16 232.33 352.859 232.619 352.488 232.818C352.117 233.018 351.668 233.117 351.141 233.117C350.48 233.117 349.936 232.943 349.506 232.596C349.076 232.244 348.758 231.74 348.551 231.084C348.344 230.424 348.24 229.633 348.24 228.711C348.24 227.789 348.334 227 348.521 226.344C348.713 225.684 349.021 225.178 349.447 224.826C349.873 224.475 350.438 224.299 351.141 224.299C351.805 224.299 352.352 224.475 352.781 224.826C353.215 225.174 353.535 225.678 353.742 226.338C353.953 226.994 354.059 227.785 354.059 228.711ZM349.629 228.711C349.629 229.434 349.676 230.037 349.77 230.521C349.867 231.006 350.027 231.369 350.25 231.611C350.473 231.85 350.77 231.969 351.141 231.969C351.512 231.969 351.809 231.85 352.031 231.611C352.254 231.373 352.414 231.012 352.512 230.527C352.613 230.043 352.664 229.438 352.664 228.711C352.664 227.992 352.615 227.391 352.518 226.906C352.42 226.422 352.26 226.059 352.037 225.816C351.814 225.57 351.516 225.447 351.141 225.447C350.766 225.447 350.467 225.57 350.244 225.816C350.025 226.059 349.867 226.422 349.77 226.906C349.676 227.391 349.629 227.992 349.629 228.711ZM355.371 232.273C355.371 231.953 355.453 231.729 355.617 231.6C355.785 231.467 355.988 231.4 356.227 231.4C356.465 231.4 356.668 231.467 356.836 231.6C357.008 231.729 357.094 231.953 357.094 232.273C357.094 232.586 357.008 232.812 356.836 232.953C356.668 233.09 356.465 233.158 356.227 233.158C355.988 233.158 355.785 233.09 355.617 232.953C355.453 232.812 355.371 232.586 355.371 232.273ZM363.891 226.391C363.891 226.777 363.812 227.113 363.656 227.398C363.5 227.684 363.285 227.918 363.012 228.102C362.742 228.281 362.43 228.41 362.074 228.488V228.529C362.758 228.615 363.273 228.83 363.621 229.174C363.973 229.518 364.148 229.973 364.148 230.539C364.148 231.035 364.029 231.479 363.791 231.869C363.553 232.256 363.188 232.561 362.695 232.783C362.203 233.006 361.57 233.117 360.797 233.117C360.332 233.117 359.9 233.08 359.502 233.006C359.107 232.932 358.732 232.812 358.377 232.648V231.424C358.74 231.604 359.127 231.742 359.537 231.84C359.947 231.938 360.336 231.986 360.703 231.986C361.418 231.986 361.928 231.854 362.232 231.588C362.537 231.318 362.689 230.947 362.689 230.475C362.689 230.17 362.609 229.92 362.449 229.725C362.293 229.529 362.049 229.383 361.717 229.285C361.389 229.188 360.965 229.139 360.445 229.139H359.689V228.031H360.451C360.947 228.031 361.346 227.973 361.646 227.855C361.947 227.734 362.164 227.568 362.297 227.357C362.434 227.146 362.502 226.9 362.502 226.619C362.502 226.252 362.383 225.967 362.145 225.764C361.906 225.557 361.553 225.453 361.084 225.453C360.795 225.453 360.531 225.486 360.293 225.553C360.059 225.619 359.842 225.703 359.643 225.805C359.443 225.906 359.254 226.016 359.074 226.133L358.412 225.178C358.736 224.936 359.123 224.73 359.572 224.562C360.021 224.395 360.545 224.311 361.143 224.311C362.021 224.311 362.699 224.5 363.176 224.879C363.652 225.254 363.891 225.758 363.891 226.391ZM371.396 231.119H370.236V233H368.877V231.119H364.98V230.076L368.895 224.41H370.236V229.977H371.396V231.119ZM368.877 229.977V227.85C368.877 227.674 368.879 227.496 368.883 227.316C368.891 227.133 368.898 226.957 368.906 226.789C368.914 226.621 368.922 226.467 368.93 226.326C368.938 226.182 368.943 226.062 368.947 225.969H368.9C368.826 226.125 368.744 226.285 368.654 226.449C368.564 226.609 368.469 226.766 368.367 226.918L366.258 229.977H368.877Z" fill="black"/>
    <rect x="16" y="53" width="24" height="24" rx="4" fill="#F5F5F5" stroke="#ECEEF2"/>
    <rect x="16" y="89" width="24" height="24" rx="4" fill="#F5F5F5" stroke="#ECEEF2"/>
    <rect x="16" y="125" width="24" height="24" rx="4" fill="#F5F5F5" stroke="#ECEEF2"/>
    <rect x="16" y="161" width="24" height="24" rx="4" fill="#E6F0FF" stroke="#9DC1F6"/>
    <path d="M37 16.9999L33.6319 22.7836H20.0655C19.8087 22.3939 19.6132 21.9342 19.5623 21.4101C19.4892 20.6487 19.7325 19.847 20.2283 19.1393C21.2165 17.8404 22.7767 16.9999 24.5309 16.9999H37Z" fill="#00B88B"/>
    <path d="M29.904 39.7242H29.9041L30.3352 39.7267L29.904 39.7242ZM32.1492 32.3555C32.1479 32.3574 32.1467 32.3593 32.1454 32.3612C32.2801 32.4313 33.2966 32.9783 33.934 33.9453C34.1916 34.3361 34.3875 34.7951 34.4378 35.3196C34.5107 36.0809 34.267 36.8819 33.7716 37.5908V37.5909C32.783 38.8888 31.223 39.729 29.4691 39.729H30.7631H30.7664C33.6203 39.729 35.9631 37.5067 36.1606 34.7026L36.1628 33.9453L36.1758 29.7837C36.1758 28.6899 35.5898 27.6677 34.6458 27.1154L29.9333 24.3197L27.0439 29.4655L32.1492 32.3555Z" fill="#5B2EBC"/>
    <path d="M21.8508 24.374C21.852 24.3721 21.8532 24.3701 21.8545 24.3682C21.7198 24.2982 20.7033 23.7512 20.066 22.7842C19.8084 22.3934 19.6125 21.9344 19.5621 21.4099C19.4893 20.6486 19.7329 19.8476 20.2283 19.1386V19.1385C21.2169 17.8406 22.7769 17.0005 24.5308 17.0005H23.2369H23.2336C20.3796 17.0005 18.0369 19.2228 17.8394 22.0268L17.8371 22.7842L17.8242 26.9457C17.8242 28.0395 18.4101 29.0618 19.3541 29.6141L23.9895 32.2722L26.8788 27.4291L21.8508 24.374Z" fill="#5B2EBC"/>
    <path d="M17 39.7295L20.3681 33.9459H33.9345C34.1913 34.3355 34.3869 34.7953 34.4377 35.3193C34.5108 36.0807 34.2675 36.8825 33.7717 37.5902C32.7835 38.889 31.2233 39.7295 29.4691 39.7295H17Z" fill="#00B88B"/>
    <defs>
        <filter id="filter0_d_8523_15617" x="63.5" y="181.5" width="381" height="113" filterUnits="userSpaceOnUse" color-interpolation-filters="sRGB">
            <feFlood flood-opacity="0" result="BackgroundImageFix"/>
            <feColorMatrix in="SourceAlpha" type="matrix" values="0 0 0 0 0 0 0 0 0 0 0 0 0 0 0 0 0 0 127 0" result="hardAlpha"/>
            <feOffset dy="12"/>
            <feGaussianBlur stdDeviation="8"/>
            <feColorMatrix type="matrix" values="0 0 0 0 0 0 0 0 0 0 0 0 0 0 0 0 0 0 0.08 0"/>
            <feBlend mode="normal" in2="BackgroundImageFix" result="effect1_dropShadow_8523_15617"/>
            <feBlend mode="normal" in="SourceGraphic" in2="effect1_dropShadow_8523_15617" result="shape"/>
        </filter>
        <filter id="filter1_d_8523_15617" x="63.5" y="95.5" width="381" height="69" filterUnits="userSpaceOnUse" color-interpolation-filters="sRGB">
            <feFlood flood-opacity="0" result="BackgroundImageFix"/>
            <feColorMatrix in="SourceAlpha" type="matrix" values="0 0 0 0 0 0 0 0 0 0 0 0 0 0 0 0 0 0 127 0" result="hardAlpha"/>
            <feOffset dy="12"/>
            <feGaussianBlur stdDeviation="8"/>
            <feColorMatrix type="matrix" values="0 0 0 0 0 0 0 0 0 0 0 0 0 0 0 0 0 0 0.08 0"/>
            <feBlend mode="normal" in2="BackgroundImageFix" result="effect1_dropShadow_8523_15617"/>
            <feBlend mode="normal" in="SourceGraphic" in2="effect1_dropShadow_8523_15617" result="shape"/>
        </filter>
        <clipPath id="clip0_8523_15617">
            <rect width="348" height="36" fill="white" transform="translate(80 100)"/>
        </clipPath>
    </defs>
</svg>
